<?xml version="1.0" standalone="no"?>
<!DOCTYPE svg PUBLIC "-//W3C//DTD SVG 20010904//EN"
 "http://www.w3.org/TR/2001/REC-SVG-20010904/DTD/svg10.dtd">
<svg version="1.0" xmlns="http://www.w3.org/2000/svg"
 width="100.000000pt" height="100.000000pt" viewBox="0 0 100.000000 100.000000"
 preserveAspectRatio="xMidYMid meet">
<metadata>
Created by potrace 1.11, written by Peter Selinger 2001-2013
</metadata>
<g transform="translate(0.000000,100.000000) scale(0.100000,-0.100000)"
fill="#000000" stroke="none">
<path d="M0 500 l0 -500 500 0 500 0 0 500 0 500 -500 0 -500 0 0 -500z m510
145 l0 -145 70 0 70 0 0 145 0 145 75 0 75 0 0 -145 0 -145 -70 0 c-61 0 -70
-2 -70 -19 0 -39 47 -90 125 -136 16 -10 15 -15 -14 -73 -17 -34 -35 -62 -39
-62 -4 0 -31 14 -60 30 l-52 31 16 31 c11 21 13 33 6 36 -51 17 -132 105 -132
145 0 15 -10 17 -76 17 l-76 0 7 -27 c11 -45 34 -73 86 -105 27 -17 49 -35 49
-41 0 -14 -60 -117 -68 -117 -4 0 -31 14 -60 31 -121 69 -172 157 -172 299 l0
80 36 0 c26 0 43 -7 60 -25 46 -49 134 -15 134 52 -1 75 -92 106 -139 47 -14
-17 -29 -24 -55 -24 l-36 0 0 60 0 60 155 0 155 0 0 -145z"/>
</g>
</svg>
